<svg xmlns="http://www.w3.org/2000/svg" viewBox="0 0 128 128" role="img" aria-labelledby="title description">
  <title id="title">PyArcana</title>
  <desc id="description">Monograma PA rodeado por hojas de estilo Art Nouveau</desc>
  <defs>
    <linearGradient id="emerald" x1="18" y1="12" x2="110" y2="116" gradientUnits="userSpaceOnUse">
      <stop stop-color="#315b4a"/>
      <stop offset="1" stop-color="#18382f"/>
    </linearGradient>
    <linearGradient id="gold" x1="22" y1="18" x2="106" y2="110" gradientUnits="userSpaceOnUse">
      <stop stop-color="#f2d58a"/>
      <stop offset=".5" stop-color="#c9a227"/>
      <stop offset="1" stop-color="#8c6717"/>
    </linearGradient>
  </defs>
  <rect x="5" y="5" width="118" height="118" rx="31" fill="url(#emerald)"/>
  <path d="M64 11C42 11 20 25 14 47c-5 19 1 42 16 56 9 8 21 13 34 14 13-1 25-6 34-14 15-14 21-37 16-56-6-22-28-36-50-36Z" fill="none" stroke="url(#gold)" stroke-width="3"/>
  <path d="M28 88c-9-13-8-31 1-43m71 43c9-13 8-31-1-43" fill="none" stroke="#d8b95e" stroke-width="2.5" stroke-linecap="round"/>
  <g fill="#d8b95e">
    <path d="M28 72c-10-2-13-10-12-18 9 2 14 8 12 18Z"/>
    <path d="M29 55c-7-6-6-14-2-20 7 5 9 12 2 20Z"/>
    <path d="M30 87c-8 3-14-1-18-7 7-4 15-2 18 7Z"/>
    <path d="M100 72c10-2 13-10 12-18-9 2-14 8-12 18Z"/>
    <path d="M99 55c7-6 6-14 2-20-7 5-9 12-2 20Z"/>
    <path d="M98 87c8 3 14-1 18-7-7-4-15-2-18 7Z"/>
  </g>
  <path d="M42 94V35h22c14 0 23 8 23 20 0 8-4 14-11 17l13 22H75L64 75h-9v19H42Zm13-31h9c6 0 10-3 10-8s-4-8-10-8h-9v16Z" fill="#fbf5e4"/>
  <path d="M49 103c10 5 20 5 30 0" fill="none" stroke="#d8b95e" stroke-width="2.5" stroke-linecap="round"/>
  <circle cx="64" cy="103" r="3" fill="#d8b95e"/>
</svg>
